<?xml version="1.0" encoding="utf-8"?>
<!-- Generator: Adobe Illustrator 26.5.0, SVG Export Plug-In . SVG Version: 6.00 Build 0)  -->
<svg version="1.1" id="Capa_1" xmlns="http://www.w3.org/2000/svg" xmlns:xlink="http://www.w3.org/1999/xlink" x="0px" y="0px"
	 viewBox="0 0 100 125" style="enable-background:new 0 0 100 125;" xml:space="preserve">
<g>
	<path d="M79.6,63.5H20c-0.6,0-1-0.4-1-1s0.4-1,1-1h59.6c0.6,0,1,0.4,1,1S80.1,63.5,79.6,63.5z"/>
	<path d="M80,63.5c-0.3,0-0.5-0.1-0.7-0.3l-29.8-30c-0.4-0.4-0.4-1,0-1.4c0.4-0.4,1-0.4,1.4,0l0,0l29.8,30c0.4,0.4,0.4,1,0,1.4
		C80.5,63.4,80.3,63.5,80,63.5L80,63.5z"/>
	<path d="M50.2,93.5c-0.6,0-1-0.5-1-1c0-0.3,0.1-0.5,0.3-0.7l29.8-30c0.4-0.4,1-0.4,1.4,0c0.4,0.4,0.4,1,0,1.4l-29.8,30
		C50.7,93.4,50.5,93.5,50.2,93.5z"/>
</g>
</svg>
